<svg xmlns="http://www.w3.org/2000/svg" viewBox="0 0 600 600" fill="none"><rect width="600" height="600" rx="64" fill="#EEF4FF"/><rect x="148" y="316" width="304" height="168" rx="76" fill="#0F172A"/><rect x="188" y="350" width="224" height="80" rx="40" fill="#fff"/><path d="M234 212c0-42 30-72 66-72s66 30 66 72c0 34-20 50-20 82v52c0 16-14 30-30 30s-30-14-30-30v-52c0-18-18-30-18-60 0-28 18-50 48-50s48 22 48 50" stroke="#0F62FE" stroke-linecap="round" stroke-linejoin="round" stroke-width="22"/><circle cx="234" cy="222" r="34" fill="#0F172A"/><circle cx="366" cy="222" r="34" fill="#0F172A"/><text x="300" y="540" fill="#0F172A" font-family="Arial, sans-serif" font-size="34" font-weight="700" text-anchor="middle">ANC EARBUDS</text></svg>
