<svg xmlns="http://www.w3.org/2000/svg" viewBox="0 0 600 600" fill="none"><rect width="600" height="600" rx="64" fill="#F5F8FF"/><rect x="150" y="322" width="300" height="150" rx="70" fill="#111827"/><rect x="180" y="352" width="240" height="86" rx="43" fill="#60A5FA"/><path d="M224 204c0-33 24-58 54-58s54 25 54 58v40c0 18-8 30-18 40v66c0 16-12 28-28 28s-28-12-28-28v-66c-10-10-18-22-18-40v-40Z" fill="#111827"/><path d="M368 204c0-33-24-58-54-58s-54 25-54 58" stroke="#111827" stroke-linecap="round" stroke-width="16"/><path d="M376 204c0-33-24-58-54-58s-54 25-54 58v40c0 18 8 30 18 40v66c0 16 12 28 28 28s28-12 28-28v-66c10-10 18-22 18-40v-40Z" fill="#111827"/><text x="300" y="538" fill="#0F172A" font-family="Arial, sans-serif" font-size="32" font-weight="700" text-anchor="middle">LOW LATENCY</text></svg>
